<?xml version="1.0" standalone="no"?>
<!DOCTYPE svg PUBLIC "-//W3C//DTD SVG 20010904//EN"
 "http://www.w3.org/TR/2001/REC-SVG-20010904/DTD/svg10.dtd">
<svg version="1.0" xmlns="http://www.w3.org/2000/svg"
 width="2000.000000pt" height="1500.000000pt" viewBox="0 0 2000.000000 1500.000000"
 preserveAspectRatio="xMidYMid meet">
<metadata>
Created by potrace 1.16, written by Peter Selinger 2001-2019
</metadata>
<g transform="translate(0.000000,1500.000000) scale(0.100000,-0.100000)"
fill="#000000" stroke="none">
<path d="M8835 14385 c-42 -15 -65 -38 -65 -64 0 -20 35 -78 68 -113 14 -16
24 -28 21 -28 -3 0 -46 9 -95 20 -123 26 -248 46 -444 69 -141 17 -189 18
-325 10 -337 -20 -779 -74 -936 -114 -248 -65 -597 -255 -723 -396 -49 -55
-61 -104 -31 -129 21 -18 176 -9 540 31 405 44 528 41 685 -18 l44 -16 -164
-38 c-516 -118 -900 -285 -1298 -566 -193 -137 -612 -503 -822 -719 -244 -251
-326 -371 -519 -763 -266 -540 -320 -804 -351 -1722 -6 -190 -13 -278 -24
-309 -16 -46 -10 -73 20 -84 20 -8 24 -3 359 359 138 148 354 379 480 514 127
134 251 267 277 295 l47 51 -40 -93 c-201 -472 -312 -1194 -313 -2037 0 -319
12 -435 75 -711 192 -844 734 -1836 1510 -2764 522 -624 1054 -1080 1475
-1264 173 -76 271 -93 288 -50 4 9 -45 216 -109 460 -63 243 -115 448 -115
453 0 7 30 11 78 11 l78 0 119 -172 c204 -293 418 -565 756 -958 308 -358 699
-762 1230 -1270 419 -401 1133 -1055 1177 -1079 12 -7 32 -9 42 -6 22 7 23 12
41 135 48 341 304 1091 680 1988 146 350 162 375 386 636 280 325 425 525 586
811 106 188 384 723 475 915 172 359 287 701 343 1018 26 146 37 484 20 615
-16 115 -47 236 -70 267 -21 29 -55 37 -78 18 -9 -7 -14 -8 -12 -3 3 6 14 28
25 50 30 62 27 203 -5 269 -27 56 -142 181 -174 192 -22 7 -21 8 3 13 42 10
101 148 167 391 25 94 28 121 28 260 -1 229 -35 338 -138 448 -61 64 -95 84
-120 71 -29 -17 -36 -43 -52 -186 -32 -277 -63 -421 -116 -525 -60 -118 -105
-158 -178 -158 -69 0 -87 13 -127 92 -50 99 -78 184 -114 348 -16 76 -34 150
-40 164 -5 14 -16 65 -25 113 -32 175 -64 233 -131 233 -99 0 -157 -155 -172
-460 -7 -127 -11 -150 -31 -183 -32 -53 -54 -61 -149 -59 -104 2 -233 32 -314
73 -147 74 -279 267 -411 599 -109 273 -141 459 -141 830 -1 227 1 267 22 367
33 163 75 284 158 454 86 175 164 299 237 376 132 139 227 121 319 -60 40 -81
73 -216 103 -424 30 -208 40 -256 66 -309 23 -49 56 -69 111 -67 154 7 300
248 359 594 17 101 20 154 17 286 l-4 163 39 15 c60 24 157 34 242 24 93 -10
128 -21 218 -66 128 -64 180 -131 214 -279 15 -68 18 -126 18 -429 0 -319 2
-353 18 -387 39 -78 116 -81 201 -7 140 123 359 576 373 772 6 73 7 77 30 77
64 0 239 372 284 605 10 49 14 150 14 340 -1 261 -2 273 -26 352 -49 157 -129
253 -301 359 -51 31 -109 71 -129 89 -88 78 -240 165 -331 189 -49 12 -52 14
-63 59 -27 105 -184 248 -306 277 -43 11 -160 10 -264 -1 -5 -1 -48 9 -95 21
-70 19 -102 22 -190 18 -120 -6 -195 -28 -268 -80 -44 -32 -49 -33 -72 -20
-23 13 -48 10 -255 -31 -127 -26 -286 -55 -355 -67 -69 -11 -174 -32 -235 -46
-89 -21 -124 -25 -185 -20 -69 5 -92 14 -280 105 -244 118 -324 145 -596 201
-114 24 -262 26 -411 6 -149 -20 -211 -1 -259 81 -38 66 -232 257 -327 322
-194 132 -580 291 -890 366 -119 29 -285 34 -352 10z m385 -65 c303 -81 615
-211 810 -338 101 -65 250 -213 300 -297 l35 -59 6 -256 c4 -140 5 -258 3
-262 -3 -4 -58 -35 -122 -68 -65 -33 -158 -91 -206 -128 -193 -148 -198 -150
-396 -178 -135 -19 -504 -30 -656 -19 -121 8 -120 7 -174 106 -55 100 -161
199 -272 254 -248 122 -597 149 -878 69 -178 -52 -287 -119 -434 -269 -177
-180 -271 -328 -342 -541 -43 -129 -55 -220 -30 -230 9 -3 16 -17 16 -33 0
-22 6 -16 41 39 23 36 60 87 82 113 41 49 226 195 347 273 136 87 306 159 406
170 59 7 68 -2 40 -41 -16 -24 -132 -307 -186 -456 -68 -188 -85 -321 -55
-429 9 -30 20 -69 24 -87 5 -17 89 -161 186 -320 98 -158 243 -396 323 -528
148 -246 197 -320 383 -580 119 -167 458 -758 436 -762 -6 -2 -302 28 -657 65
-469 50 -653 66 -673 59 -34 -11 -52 -46 -43 -80 3 -15 86 -103 198 -210 l192
-185 40 -925 41 -924 -140 119 c-150 126 -182 141 -219 99 -22 -25 -23 -54 -1
-180 18 -109 16 -120 -26 -121 -30 0 -289 -80 -408 -125 -65 -25 -120 -45
-123 -45 -3 0 7 43 23 96 111 385 134 764 67 1139 -28 156 -30 453 -5 623 44
291 120 576 233 865 30 77 54 150 54 163 0 13 -9 33 -20 44 -36 36 -66 26
-142 -47 -66 -64 -70 -66 -64 -38 19 99 197 1226 198 1253 0 42 -27 72 -65 72
-17 0 -72 -23 -129 -55 -89 -48 -99 -52 -94 -32 4 12 9 46 13 75 5 42 2 56
-12 72 -38 42 -64 30 -310 -150 -127 -94 -237 -181 -243 -194 -7 -16 -6 -69 3
-182 40 -478 49 -720 50 -1294 0 -397 -4 -615 -13 -705 -27 -272 -71 -482
-151 -724 -42 -127 -41 -155 4 -185 33 -22 78 -90 106 -161 22 -56 24 -73 23
-265 0 -113 -5 -254 -13 -315 -18 -155 -60 -438 -76 -515 -16 -74 -7 -106 34
-126 19 -10 33 -9 70 2 295 94 780 183 1060 196 l65 3 123 -755 c67 -415 121
-766 120 -779 -2 -22 -34 -38 -312 -157 -357 -153 -376 -166 -321 -231 l24
-28 438 -5 437 -5 108 -415 c59 -228 105 -418 103 -422 -27 -43 -352 120 -599
300 -567 412 -1241 1177 -1753 1990 -205 327 -423 740 -546 1037 -70 171 -188
516 -221 645 -80 320 -100 603 -75 1080 50 955 191 1556 461 1960 85 126 86
128 61 106 -12 -10 -28 -16 -36 -13 -8 3 -32 -7 -53 -22 -56 -41 -1076 -1121
-1197 -1268 -28 -34 -52 -60 -53 -59 -5 5 18 629 28 761 41 552 140 867 451
1436 125 229 263 399 518 638 765 718 1226 979 2026 1151 76 16 141 35 145 42
13 21 0 72 -23 90 -75 58 -244 92 -428 85 -171 -6 -730 -64 -792 -82 -30 -9
-48 -10 -48 -4 0 6 24 33 53 61 132 129 467 307 676 358 208 52 745 112 1021
113 303 3 744 -76 1029 -183 57 -22 106 -39 107 -37 2 1 -30 19 -71 40 -48 25
-72 43 -69 52 3 8 -31 38 -90 79 -52 36 -98 71 -102 77 -3 6 -22 17 -40 25
-34 14 -44 37 -22 50 53 33 233 26 388 -16z m1332 -770 c28 0 104 7 171 16
142 19 218 14 392 -22 209 -45 333 -88 538 -189 251 -124 301 -133 497 -84 41
10 143 29 227 44 83 14 229 41 324 60 95 19 174 33 177 31 7 -8 -129 -79 -176
-92 -26 -7 -150 -32 -277 -54 -126 -22 -243 -45 -260 -50 -71 -22 -168 -31
-244 -21 -66 9 -99 23 -251 100 -206 105 -290 136 -503 185 -203 48 -287 53
-452 31 -81 -11 -151 -15 -188 -10 l-59 6 3 -178 c4 -177 4 -178 -18 -181 -30
-4 -32 6 -35 248 l-3 205 44 -22 c28 -15 62 -23 93 -23z m2896 -57 c-3 -15
-19 -19 -101 -25 -146 -10 -201 -32 -308 -119 -35 -29 -85 -73 -111 -98 -35
-33 -51 -42 -59 -34 -17 17 14 66 68 110 27 21 68 55 93 76 93 80 167 105 313
106 98 1 108 -1 105 -16z m6 -353 c41 -16 60 -30 76 -57 11 -19 19 -37 17 -39
-1 -2 -31 8 -66 22 -34 14 -69 23 -76 20 -8 -3 -37 -35 -66 -71 -73 -93 -106
-108 -249 -113 -125 -4 -218 11 -290 48 -38 19 -68 55 -56 67 3 4 48 -7 98
-23 80 -25 109 -29 208 -29 154 0 176 9 241 96 41 55 83 94 106 99 1 0 27 -9
57 -20z m899 -57 c51 -26 109 -66 135 -92 26 -26 94 -75 152 -109 141 -83 148
-89 177 -158 95 -223 108 -297 100 -588 -7 -239 -18 -309 -78 -461 -44 -113
-126 -265 -143 -265 -13 0 -80 67 -149 151 -84 100 -211 301 -294 465 -128
251 -128 249 -67 849 13 132 24 248 24 257 0 22 17 16 143 -49z m-6091 -4
c122 -24 240 -65 313 -110 70 -42 170 -147 208 -216 l27 -51 -37 -12 c-56 -18
-218 -105 -301 -163 -49 -34 -164 -144 -345 -330 -150 -154 -321 -325 -382
-379 l-110 -100 -9 54 c-18 114 20 269 136 548 36 85 78 193 93 239 26 76 27
86 14 110 -33 58 -84 61 -234 14 -173 -54 -480 -246 -633 -396 l-53 -52 26 73
c72 201 147 321 302 482 161 169 293 245 490 285 185 37 322 39 495 4z m2558
-144 c195 -53 359 -100 363 -104 5 -5 -5 -11 -21 -14 -16 -3 -106 -35 -200
-72 -95 -36 -216 -78 -269 -93 -93 -26 -108 -27 -303 -26 -223 2 -311 14 -408
59 l-54 25 58 45 c156 120 193 145 316 212 73 39 140 70 148 68 8 -2 175 -47
370 -100z m684 -151 c10 -4 16 -15 14 -28 -3 -20 -10 -21 -138 -27 -148 -7
-162 -11 -440 -118 -74 -29 -182 -64 -240 -79 -96 -24 -121 -26 -290 -25 -275
1 -417 28 -522 100 l-53 36 -95 -12 c-308 -39 -349 -42 -620 -39 l-275 3 -59
-28 c-68 -32 -208 -121 -244 -154 l-25 -23 2591 0 2590 0 4 -57 c3 -32 4 -97
4 -144 -1 -77 -4 -89 -29 -122 -16 -22 -53 -49 -93 -68 -86 -43 -178 -48 -424
-24 -208 21 -342 13 -522 -31 -255 -62 -526 -211 -727 -400 -167 -157 -257
-293 -317 -479 -19 -60 -58 -158 -85 -216 -27 -59 -55 -133 -64 -164 -46 -180
-67 -761 -32 -923 26 -121 89 -286 178 -467 137 -279 316 -523 555 -756 250
-243 453 -354 742 -403 237 -41 466 -62 849 -78 l293 -12 20 -38 c19 -36 19
-38 2 -29 -10 5 -142 15 -293 21 -621 24 -983 76 -1174 169 -212 102 -496 361
-714 651 -36 47 -73 93 -83 103 -10 10 -18 22 -18 27 0 6 -6 10 -14 10 -8 0
-18 9 -21 20 -6 19 -15 20 -352 20 -329 0 -346 1 -373 20 -15 11 -36 23 -46
27 -11 5 -66 33 -124 65 -206 111 -928 458 -953 458 -65 0 -71 -55 -20 -175
17 -38 29 -72 27 -73 -1 -2 -42 8 -91 21 -177 51 -396 84 -580 87 -29 0 -34 6
-238 260 -403 503 -630 825 -920 1305 -120 198 -252 416 -293 484 -53 87 -85
129 -108 143 -19 11 -34 23 -34 28 0 4 41 43 92 86 101 87 238 221 543 534
185 190 208 210 308 269 60 35 141 77 180 94 l72 30 340 2 c306 2 358 4 515
27 l175 26 20 -23 c53 -61 199 -102 415 -116 269 -17 381 4 725 138 76 29 173
60 215 68 73 14 236 14 274 -1z m2566 -681 c22 -69 167 -357 220 -438 87 -133
170 -236 261 -325 l87 -85 -9 -60 c-30 -195 -239 -623 -354 -724 -40 -34 -84
-41 -109 -15 -14 14 -16 56 -14 342 2 349 0 378 -52 553 -20 65 -30 81 -84
134 -70 69 -157 116 -272 145 -138 36 -327 20 -407 -34 l-32 -22 0 -199 c-1
-163 -5 -219 -22 -300 -44 -209 -122 -386 -200 -455 -55 -48 -92 -58 -133 -33
-38 22 -43 40 -76 265 -32 219 -47 291 -85 403 -38 111 -66 161 -118 208 -56
51 -107 63 -179 42 -47 -14 -68 -29 -132 -93 -96 -97 -160 -195 -261 -397 -89
-177 -139 -322 -172 -495 -18 -97 -21 -150 -21 -345 -1 -425 53 -674 225
-1042 151 -324 329 -477 611 -523 82 -13 179 -13 215 1 38 14 71 46 95 94 17
32 22 69 29 198 15 280 69 435 139 397 10 -6 17 -16 14 -24 -7 -18 22 -185 45
-261 11 -33 29 -109 41 -170 29 -144 70 -268 121 -367 52 -98 83 -118 189
-118 84 0 114 13 165 72 93 108 144 280 180 598 8 74 17 150 20 167 6 32 6 33
30 17 35 -23 93 -132 116 -221 17 -61 21 -108 21 -218 0 -125 -3 -153 -32
-259 -39 -149 -98 -304 -119 -316 -17 -8 -886 23 -966 36 -152 23 -308 81
-413 153 -314 216 -562 469 -737 751 -75 122 -200 381 -220 456 -72 275 -23
719 135 1234 86 278 209 496 387 681 141 147 268 222 452 268 130 33 223 41
489 41 433 0 542 29 648 173 24 32 46 75 50 95 4 20 9 40 11 45 2 4 51 7 108
7 l103 0 12 -37z m-1675 -371 c-6 -4 -37 -26 -69 -47 -170 -114 -378 -382
-479 -617 -74 -174 -175 -537 -218 -788 -30 -176 -37 -489 -15 -620 55 -314
279 -711 561 -996 153 -154 409 -354 530 -414 55 -28 97 -50 93 -50 -20 0
-151 47 -198 70 -251 129 -562 444 -779 792 -136 218 -266 511 -304 688 -27
122 -28 424 -4 680 20 202 31 248 80 347 20 40 57 130 81 201 24 71 57 155 74
188 95 188 313 393 559 526 86 47 107 56 88 40z m-5356 -613 c-29 -43 -152
-143 -323 -263 -14 -10 -66 0 -66 12 1 9 414 311 419 306 2 -2 -11 -27 -30
-55z m1471 -1684 c459 -47 875 -90 924 -95 57 -6 95 -15 105 -25 14 -13 6 -15
-75 -15 -49 0 -125 4 -169 10 -131 16 -1518 160 -1550 161 -17 0 -57 14 -90
30 l-60 29 40 -4 c22 -3 416 -43 875 -91z m1833 -201 c420 -211 505 -260 719
-410 305 -213 309 -218 1050 -1000 79 -83 194 -205 255 -271 179 -192 275
-243 462 -243 101 0 208 23 280 59 36 19 36 19 121 -10 152 -50 392 -61 570
-24 94 19 173 51 246 100 35 24 64 41 64 38 0 -13 -132 -151 -186 -194 -131
-104 -238 -133 -499 -133 -139 -1 -167 2 -217 21 -74 28 -91 17 -107 -67 -16
-83 -86 -295 -114 -348 -21 -40 -31 -47 -117 -83 -51 -21 -98 -39 -105 -39
-16 0 -122 124 -205 240 -37 52 -139 205 -225 340 -86 135 -191 293 -232 352
-260 370 -554 667 -811 817 -59 35 -79 54 -128 123 -241 347 -456 505 -951
698 l-192 75 -30 73 c-16 39 -27 72 -24 72 3 0 172 -84 376 -186z m-992 -504
c758 -1286 779 -1317 1045 -1585 145 -147 223 -203 292 -212 61 -8 76 21 81
162 2 94 -2 140 -33 305 -42 226 -66 384 -65 420 1 19 7 11 29 -35 108 -234
166 -551 157 -863 -6 -223 -37 -426 -92 -617 -24 -83 -96 -260 -112 -276 -5
-5 -24 49 -42 119 -47 183 -50 191 -78 209 -23 15 -27 15 -59 -2 -32 -17 -35
-17 -81 0 -94 35 -322 156 -553 294 -129 78 -243 141 -253 141 -20 0 -67 -43
-67 -60 0 -23 25 -57 99 -135 163 -171 249 -346 270 -546 8 -80 16 -102 120
-329 61 -134 111 -247 111 -252 0 -5 -48 -31 -107 -59 -60 -27 -142 -70 -183
-94 -100 -59 -169 -69 -400 -62 -279 9 -531 47 -623 92 -48 24 -147 96 -224
163 l-33 28 0 523 0 522 38 -6 c147 -25 370 -88 552 -158 76 -28 111 -23 129
21 19 47 182 955 176 979 -3 12 -17 30 -30 39 -21 13 -30 14 -53 5 -16 -7
-124 -119 -247 -257 -120 -135 -221 -243 -224 -242 -3 2 -36 20 -73 41 -37 21
-114 55 -170 75 l-103 38 -3 846 -2 846 82 6 c46 4 101 8 123 10 22 1 155 2
295 2 l255 -1 56 -95z m184 70 c67 -10 72 -13 135 -74 116 -112 194 -162 274
-172 55 -8 85 -1 113 26 l23 20 77 -68 c143 -127 254 -257 361 -427 63 -100
88 -181 112 -366 11 -81 34 -218 50 -305 17 -88 35 -192 40 -233 13 -94 3
-211 -18 -219 -75 -28 -400 312 -614 643 -94 144 -698 1166 -698 1179 0 9 67
7 145 -4z m1829 -523 c67 -45 256 -206 283 -241 10 -13 59 -71 110 -130 164
-189 292 -369 536 -753 188 -296 323 -472 410 -538 23 -18 35 -35 32 -44 -2
-9 -30 -142 -61 -295 l-56 -280 -485 -1290 c-267 -710 -494 -1316 -505 -1345
l-21 -55 -68 171 c-192 487 -435 1137 -589 1581 l-43 123 45 47 c166 173 297
372 379 579 60 152 141 526 198 920 83 565 21 1038 -190 1460 -82 165 -83 163
25 90z m2888 -777 c-1 -18 5 -69 14 -114 8 -44 18 -144 21 -222 19 -474 -129
-1003 -466 -1659 -467 -909 -556 -1051 -918 -1470 -252 -292 -282 -339 -406
-630 -351 -828 -606 -1549 -692 -1955 -14 -69 -30 -129 -35 -134 -6 -6 -22 1
-42 20 -18 17 -103 93 -188 170 -773 694 -1627 1533 -2046 2009 -91 103 -357
421 -460 550 -152 190 -434 576 -434 594 0 4 282 7 628 6 683 0 769 5 967 55
61 15 137 39 170 53 l60 26 56 -117 c31 -64 55 -119 53 -121 -2 -2 -32 13 -68
33 -35 20 -77 36 -92 36 -38 0 -64 -27 -64 -64 0 -19 232 -541 608 -1371 549
-1211 610 -1341 635 -1349 17 -6 37 -6 55 0 24 8 34 29 100 204 515 1382 927
2338 1165 2703 62 96 69 112 61 135 -5 15 -23 34 -40 43 l-31 15 38 70 c137
246 229 546 249 816 14 174 34 279 74 391 66 182 167 360 299 525 41 51 67 93
67 108 0 31 -33 64 -66 64 -14 0 -125 -41 -247 -91 -122 -50 -228 -93 -235
-96 -10 -4 -9 4 4 33 28 65 84 244 96 309 l11 62 61 -20 c78 -25 294 -27 444
-3 181 28 278 92 470 309 57 65 109 116 116 114 6 -2 10 -19 8 -37z m-4928
-209 c-34 -63 -293 -370 -370 -438 -51 -46 -86 -13 -36 34 16 15 121 131 232
256 112 125 205 226 207 223 3 -3 -12 -36 -33 -75z m-1644 -195 c0 -20 -8 -25
-57 -35 -89 -20 -291 -87 -462 -153 -112 -43 -157 -56 -165 -48 -21 21 11 44
125 91 207 84 530 185 552 172 4 -2 7 -14 7 -27z m5755 -292 c-72 -60 -124
-88 -311 -165 -110 -45 -221 -92 -248 -105 -55 -28 -76 -25 -76 8 0 21 33 36
323 155 177 73 327 132 332 132 6 0 -3 -11 -20 -25z m-3270 -1425 c4 -11 5
-22 3 -23 -10 -9 -368 -187 -392 -196 -57 -21 -218 -29 -376 -19 -161 10 -330
32 -390 51 -34 11 -35 11 -10 18 15 4 53 4 85 -1 158 -22 433 -32 546 -21
l114 11 195 100 c107 55 200 101 207 101 6 0 15 -9 18 -21z m-2069 -377 c-4
-11 -21 -27 -39 -36 -108 -51 -350 -151 -397 -163 -84 -23 -197 -42 -180 -31
42 27 606 264 613 258 5 -5 6 -17 3 -28z"/>
<path d="M14266 12994 c-3 -26 -6 -75 -6 -110 l0 -64 158 0 157 1 -74 70 c-67
63 -192 149 -218 149 -6 0 -13 -21 -17 -46z"/>
</g>
</svg>
